# xmcd
#
# Track frame offsets:
# 150
# 15895
# 31355
# 46445
# 63492
# 81097
# 103280
# 122825
# 140312
# 155752
# 169567
# 181717
# 196927
# 209370
# 237715
#
# Disc length: 4440 seconds
#
#
# Revision: 0
# Processed by: cddbd v1.5.1PL2 Copyright (c) Steve Scherf et al.
# Submitted via: FreeRIP 2.944 
#
DISCID=ca11560f
DTITLE=José Augusto - Coletania
DYEAR=1900
DGENRE=Blues
TTITLE0=De que vale ter tudo na vida
TTITLE1=Luzes da ribalta
TTITLE2=Fascinasção
TTITLE3=Doce engano
TTITLE4=Meu primeiro amor
TTITLE5=Aguenta coração
TTITLE6=Jura-me
TTITLE7=Faz de conta
TTITLE8=Ninguem vai te amar como eu te amei
TTITLE9=Palavras, palavras...
TTITLE10=Ritmo da chuva
TTITLE11=Na rua em que voce morava
TTITLE12=Vida vazia
TTITLE13=Amantes
TTITLE14=desconhecida
EXTD=
EXTT0=
EXTT1=
EXTT2=
EXTT3=
EXTT4=
EXTT5=
EXTT6=
EXTT7=
EXTT8=
EXTT9=
EXTT10=
EXTT11=
EXTT12=
EXTT13=
EXTT14=
PLAYORDER=
